<?xml version="1.0" encoding="UTF-8"?>
<!DOCTYPE svg PUBLIC "-//W3C//DTD SVG 1.1//EN" "http://www.w3.org/Graphics/SVG/1.1/DTD/svg11.dtd">
<svg xmlns="http://www.w3.org/2000/svg" version="1.1" width="752px" height="752px" style="shape-rendering:geometricPrecision; text-rendering:geometricPrecision; image-rendering:optimizeQuality; fill-rule:evenodd; clip-rule:evenodd" xmlns:xlink="http://www.w3.org/1999/xlink">
<g><path style="opacity:1" fill="#febf3e" d="M 370.5,161.5 C 408.37,160.742 445.036,166.909 480.5,180C 503.809,189.395 523.642,203.562 540,222.5C 543.394,226.898 546.394,231.565 549,236.5C 550.368,239.738 550.701,243.072 550,246.5C 527.578,309.521 512.078,374.188 503.5,440.5C 527.634,445.737 549.634,455.57 569.5,470C 593.085,490.623 595.252,513.123 576,537.5C 561.793,550.192 545.626,559.692 527.5,566C 500.223,575.486 472.223,581.819 443.5,585C 379.249,592.696 315.583,589.362 252.5,575C 229.296,569.493 207.629,560.493 187.5,548C 177.805,541.446 170.305,532.946 165,522.5C 159.879,508.877 161.213,495.877 169,483.5C 175.965,474.198 184.465,466.698 194.5,461C 211.31,451.898 228.977,445.064 247.5,440.5C 238.92,374.181 223.42,309.514 201,246.5C 200.333,243.833 200.333,241.167 201,238.5C 211.783,218.717 226.949,203.217 246.5,192C 268.025,179.713 291.025,171.379 315.5,167C 333.877,164.043 352.21,162.21 370.5,161.5 Z M 372.5,187.5 C 404.318,187.185 435.318,192.018 465.5,202C 486.272,209.465 504.106,221.298 519,237.5C 520.697,239.699 522.197,242.032 523.5,244.5C 500.156,312.374 483.823,381.874 474.5,453C 423.428,462.162 372.094,464.162 320.5,459C 306.764,457.681 293.098,455.847 279.5,453.5C 278.006,453.291 276.839,452.624 276,451.5C 267.457,380.5 251.291,311.333 227.5,244C 242.142,224.995 260.809,211.329 283.5,203C 312.453,192.939 342.12,187.773 372.5,187.5 Z M 248.5,466.5 C 249.5,466.5 250.5,466.5 251.5,466.5C 249.945,492.597 261.278,510.097 285.5,519C 344.751,532.616 404.085,532.949 463.5,520C 479.31,516.191 490.143,506.691 496,491.5C 497.956,483.277 499.122,474.944 499.5,466.5C 517.504,470.672 534.171,477.838 549.5,488C 566.379,499.902 566.712,512.236 550.5,525C 528.308,538.754 504.308,548.088 478.5,553C 409.833,567 341.167,567 272.5,553C 246.688,548.085 222.688,538.752 200.5,525C 195.917,521.088 192.083,516.588 189,511.5C 187.595,505.465 188.928,500.132 193,495.5C 198.876,489.814 205.376,484.98 212.5,481C 224.25,475.283 236.25,470.45 248.5,466.5 Z"/></g>
</svg>
